<svg id="visual" viewBox="0 0 900 2800" width="900" height="2800" xmlns="http://www.w3.org/2000/svg" xmlns:xlink="http://www.w3.org/1999/xlink" version="1.1"><rect x="0" y="0" width="900" height="2800" fill="#111827"></rect><path d="M0 537L75 495.3C150 453.7 300 370.3 450 350C600 329.7 750 372.3 825 393.7L900 415L900 2801L825 2801C750 2801 600 2801 450 2801C300 2801 150 2801 75 2801L0 2801Z" fill="#111827"></path><path d="M0 846L75 780.3C150 714.7 300 583.3 450 523.3C600 463.3 750 474.7 825 480.3L900 486L900 2801L825 2801C750 2801 600 2801 450 2801C300 2801 150 2801 75 2801L0 2801Z" fill="#24243e"></path><path d="M0 638L75 657.3C150 676.7 300 715.3 450 759.5C600 803.7 750 853.3 825 878.2L900 903L900 2801L825 2801C750 2801 600 2801 450 2801C300 2801 150 2801 75 2801L0 2801Z" fill="#402e53"></path><path d="M0 964L75 1000C150 1036 300 1108 450 1100.8C600 1093.7 750 1007.3 825 964.2L900 921L900 2801L825 2801C750 2801 600 2801 450 2801C300 2801 150 2801 75 2801L0 2801Z" fill="#623662"></path><path d="M0 1111L75 1119.3C150 1127.7 300 1144.3 450 1166C600 1187.7 750 1214.3 825 1227.7L900 1241L900 2801L825 2801C750 2801 600 2801 450 2801C300 2801 150 2801 75 2801L0 2801Z" fill="#863d6b"></path><path d="M0 1303L75 1312.5C150 1322 300 1341 450 1340.2C600 1339.3 750 1318.7 825 1308.3L900 1298L900 2801L825 2801C750 2801 600 2801 450 2801C300 2801 150 2801 75 2801L0 2801Z" fill="#ab446d"></path><path d="M0 1694L75 1687.8C150 1681.7 300 1669.3 450 1636C600 1602.7 750 1548.3 825 1521.2L900 1494L900 2801L825 2801C750 2801 600 2801 450 2801C300 2801 150 2801 75 2801L0 2801Z" fill="#cc4f68"></path><path d="M0 1943L75 1915.8C150 1888.7 300 1834.3 450 1833.5C600 1832.7 750 1885.3 825 1911.7L900 1938L900 2801L825 2801C750 2801 600 2801 450 2801C300 2801 150 2801 75 2801L0 2801Z" fill="#e8605d"></path><path d="M0 1905L75 1916.8C150 1928.7 300 1952.3 450 1948.8C600 1945.3 750 1914.7 825 1899.3L900 1884L900 2801L825 2801C750 2801 600 2801 450 2801C300 2801 150 2801 75 2801L0 2801Z" fill="#fc784d"></path><path d="M0 2070L75 2081C150 2092 300 2114 450 2134.7C600 2155.3 750 2174.7 825 2184.3L900 2194L900 2801L825 2801C750 2801 600 2801 450 2801C300 2801 150 2801 75 2801L0 2801Z" fill="#ff953a"></path><path d="M0 2455L75 2452C150 2449 300 2443 450 2415.5C600 2388 750 2339 825 2314.5L900 2290L900 2801L825 2801C750 2801 600 2801 450 2801C300 2801 150 2801 75 2801L0 2801Z" fill="#ffb521"></path><path d="M0 2638L75 2616.3C150 2594.7 300 2551.3 450 2533.7C600 2516 750 2524 825 2528L900 2532L900 2801L825 2801C750 2801 600 2801 450 2801C300 2801 150 2801 75 2801L0 2801Z" fill="#ffd700"></path></svg>