<svg id="visual" viewBox="0 0 900 2800" width="900" height="2800" xmlns="http://www.w3.org/2000/svg" xmlns:xlink="http://www.w3.org/1999/xlink" version="1.1"><path d="M0 449L180 729L360 421L540 813L720 729L900 897L900 0L720 0L540 0L360 0L180 0L0 0Z" fill="#111827"></path><path d="M0 645L180 869L360 729L540 1065L720 953L900 1065L900 895L720 727L540 811L360 419L180 727L0 447Z" fill="#3b2d4f"></path><path d="M0 953L180 1205L360 1037L540 1429L720 1317L900 1233L900 1063L720 951L540 1063L360 727L180 867L0 643Z" fill="#7a3b69"></path><path d="M0 1709L180 1737L360 1905L540 1849L720 1961L900 1681L900 1231L720 1315L540 1427L360 1035L180 1203L0 951Z" fill="#bc496b"></path><path d="M0 1989L180 1961L360 2101L540 1989L720 2101L900 1905L900 1679L720 1959L540 1847L360 1903L180 1735L0 1707Z" fill="#f06858"></path><path d="M0 2297L180 2185L360 2297L540 2353L720 2297L900 2269L900 1903L720 2099L540 1987L360 2099L180 1959L0 1987Z" fill="#ff9a36"></path><path d="M0 2801L180 2801L360 2801L540 2801L720 2801L900 2801L900 2267L720 2295L540 2351L360 2295L180 2183L0 2295Z" fill="#ffd700"></path></svg>