<svg id="visual" viewBox="0 0 900 2800" width="900" height="2800" xmlns="http://www.w3.org/2000/svg" xmlns:xlink="http://www.w3.org/1999/xlink" version="1.1"><rect x="0" y="0" width="900" height="2800" fill="#111827"></rect><path d="M0 761L75 742.5C150 724 300 687 450 692.8C600 698.7 750 747.3 825 771.7L900 796L900 2801L825 2801C750 2801 600 2801 450 2801C300 2801 150 2801 75 2801L0 2801Z" fill="#111827"></path><path d="M0 774L75 771C150 768 300 762 450 818C600 874 750 992 825 1051L900 1110L900 2801L825 2801C750 2801 600 2801 450 2801C300 2801 150 2801 75 2801L0 2801Z" fill="#2a2643"></path><path d="M0 1116L75 1135.5C150 1155 300 1194 450 1218C600 1242 750 1251 825 1255.5L900 1260L900 2801L825 2801C750 2801 600 2801 450 2801C300 2801 150 2801 75 2801L0 2801Z" fill="#4f325a"></path><path d="M0 1298L75 1308.5C150 1319 300 1340 450 1335.5C600 1331 750 1301 825 1286L900 1271L900 2801L825 2801C750 2801 600 2801 450 2801C300 2801 150 2801 75 2801L0 2801Z" fill="#7a3b69"></path><path d="M0 1558L75 1540.3C150 1522.7 300 1487.3 450 1498.7C600 1510 750 1568 825 1597L900 1626L900 2801L825 2801C750 2801 600 2801 450 2801C300 2801 150 2801 75 2801L0 2801Z" fill="#a7436d"></path><path d="M0 1766L75 1743.5C150 1721 300 1676 450 1659C600 1642 750 1653 825 1658.5L900 1664L900 2801L825 2801C750 2801 600 2801 450 2801C300 2801 150 2801 75 2801L0 2801Z" fill="#cf5167"></path><path d="M0 1886L75 1920.8C150 1955.7 300 2025.3 450 2058C600 2090.7 750 2086.3 825 2084.2L900 2082L900 2801L825 2801C750 2801 600 2801 450 2801C300 2801 150 2801 75 2801L0 2801Z" fill="#f06858"></path><path d="M0 2278L75 2264.7C150 2251.3 300 2224.7 450 2184.2C600 2143.7 750 2089.3 825 2062.2L900 2035L900 2801L825 2801C750 2801 600 2801 450 2801C300 2801 150 2801 75 2801L0 2801Z" fill="#ff8843"></path><path d="M0 2405L75 2395.3C150 2385.7 300 2366.3 450 2362.8C600 2359.3 750 2371.7 825 2377.8L900 2384L900 2801L825 2801C750 2801 600 2801 450 2801C300 2801 150 2801 75 2801L0 2801Z" fill="#ffae27"></path><path d="M0 2494L75 2515.5C150 2537 300 2580 450 2576.5C600 2573 750 2523 825 2498L900 2473L900 2801L825 2801C750 2801 600 2801 450 2801C300 2801 150 2801 75 2801L0 2801Z" fill="#ffd700"></path></svg>